<?xml version="1.0" encoding="UTF-8" standalone="no"?>
<!-- Created with Inkscape (http://www.inkscape.org/) -->

<svg
   xmlns:dc="http://purl.org/dc/elements/1.1/"
   xmlns:cc="http://creativecommons.org/ns#"
   xmlns:rdf="http://www.w3.org/1999/02/22-rdf-syntax-ns#"
   xmlns:svg="http://www.w3.org/2000/svg"
   xmlns="http://www.w3.org/2000/svg"
   xmlns:sodipodi="http://sodipodi.sourceforge.net/DTD/sodipodi-0.dtd"
   xmlns:inkscape="http://www.inkscape.org/namespaces/inkscape"
   width="1024"
   height="500"
   viewBox="0 0 270.93334 132.29167"
   version="1.1"
   id="svg8"
   inkscape:version="0.92.2pre0 (973e216, 2017-07-25)"
   sodipodi:docname="googleplay_featured.svg"
   inkscape:export-filename="/home/depaulicious/AndroidStudioProjects/android-snapchat-xoxo/googleplay_featured.png"
   inkscape:export-xdpi="96.000008"
   inkscape:export-ydpi="96.000008">
  <defs
     id="defs2">
    <filter
       inkscape:collect="always"
       style="color-interpolation-filters:sRGB"
       id="filter4637"
       x="-0.55000665"
       width="2.1000133"
       y="-0.55400058"
       height="2.1080012">
      <feGaussianBlur
         inkscape:collect="always"
         stdDeviation="11.480151"
         id="feGaussianBlur4639" />
    </filter>
  </defs>
  <sodipodi:namedview
     id="base"
     pagecolor="#ffffff"
     bordercolor="#666666"
     borderopacity="1.0"
     inkscape:pageopacity="0.0"
     inkscape:pageshadow="2"
     inkscape:zoom="0.98994949"
     inkscape:cx="457.19059"
     inkscape:cy="314.10746"
     inkscape:document-units="mm"
     inkscape:current-layer="g826"
     showgrid="false"
     inkscape:window-width="2560"
     inkscape:window-height="1288"
     inkscape:window-x="0"
     inkscape:window-y="0"
     inkscape:window-maximized="1"
     fit-margin-top="0"
     fit-margin-left="0"
     fit-margin-right="0"
     fit-margin-bottom="0"
     units="px" />
  <metadata
     id="metadata5">
    <rdf:RDF>
      <cc:Work
         rdf:about="">
        <dc:format>image/svg+xml</dc:format>
        <dc:type
           rdf:resource="http://purl.org/dc/dcmitype/StillImage" />
        <dc:title></dc:title>
      </cc:Work>
    </rdf:RDF>
  </metadata>
  <g
     inkscape:label="Layer 1"
     inkscape:groupmode="layer"
     id="layer1"
     transform="translate(-49.844327,-36.228307)">
    <g
       id="g826"
       transform="translate(-59.667922,1.8040693)">
      <rect
         style="opacity:1;fill:#ffffff;fill-opacity:1;stroke-width:0.21483584"
         id="rect4660"
         width="270.93332"
         height="132.29167"
         x="109.51225"
         y="34.424244" />
      <g
         transform="matrix(1.4130752,0,0,1.4233365,54.836068,-101.32917)"
         id="g4515"
         style="filter:url(#filter4637)">
        <rect
           style="opacity:1;fill:#ffffff;fill-opacity:1;stroke-width:0.26458332"
           id="rect4507"
           width="39.889977"
           height="38.754082"
           x="114.45818"
           y="122.27254" />
        <path
           style="fill:#f101cd;stroke-width:0.35277778"
           d="m 113.21647,166.31252 c -1.24185,-0.68685 -2.34325,-1.84536 -3.03294,-3.19023 -0.63624,-1.24065 -0.67122,-2.33995 -0.67122,-21.09253 0,-18.75258 0.035,-19.85188 0.67122,-21.09253 0.77787,-1.5168 1.8628,-2.57909 3.4564,-3.38426 0.99988,-0.50519 3.39206,-0.57043 20.91613,-0.57043 18.75599,0 19.85534,0.035 21.096,0.67122 1.5168,0.77787 2.57909,1.8628 3.38426,3.4564 0.5052,0.99989 0.57043,3.39233 0.57043,20.9196 0,21.40309 0.0554,20.73343 -1.89335,22.87588 -1.69549,1.864 -1.12212,1.81936 -23.22455,1.80784 -14.3479,-0.007 -20.78016,-0.12873 -21.27238,-0.40096 z m 25.5976,-10.90123 c 2.02226,-1.21207 2.58735,-1.38709 4.47867,-1.38709 2.00393,0 2.19852,-0.0708 2.62462,-0.95441 0.33766,-0.70024 0.87611,-1.05537 2.02185,-1.33349 1.78254,-0.4327 2.22122,-1.0551 0.96574,-1.3702 -1.23476,-0.30991 -4.3835,-3.26063 -5.21161,-4.88385 -1.05502,-2.06801 -0.79337,-3.13068 0.98076,-3.98327 1.76281,-0.84715 2.01904,-1.0753 1.73101,-1.54135 -0.14723,-0.23822 -0.55721,-0.23745 -1.24504,0.002 -0.70461,0.24563 -1.24434,0.2404 -1.72476,-0.0167 -0.6186,-0.33107 -0.71302,-0.81572 -0.81876,-4.20257 -0.1107,-3.5458 -0.19447,-3.93638 -1.13504,-5.29228 -2.97069,-4.28241 -10.27952,-4.53418 -13.63244,-0.4696 -1.38748,1.68198 -1.75184,3.09639 -1.75424,6.80974 -0.002,3.43982 -0.14927,3.63135 -2.49945,3.25554 -1.88859,-0.302 -1.79492,0.35937 0.17426,1.23043 2.1542,0.95291 2.53125,1.77258 1.68812,3.66986 -0.95588,2.15098 -2.37929,3.69149 -4.53506,4.90814 -1.03697,0.58522 -1.88539,1.12383 -1.88539,1.1969 0,0.0731 0.87291,0.38662 1.9398,0.69678 1.52791,0.44417 1.98548,0.7459 2.15491,1.42096 0.20041,0.79849 0.37309,0.85705 2.52723,0.85705 1.98923,0 2.5527,0.15438 4.0348,1.10544 3.79313,2.43405 5.44383,2.48502 9.12002,0.28165 z m -8.30616,-9.13958 c -0.11699,-0.18929 0.14743,-0.96991 0.5876,-1.73471 0.78559,-1.36499 0.78877,-1.41474 0.17297,-2.70609 -0.77024,-1.61521 -0.30372,-2.40705 0.81935,-1.39069 0.7047,0.63774 0.74264,0.62984 1.78892,-0.37256 0.87081,-0.83428 1.12693,-0.9303 1.38175,-0.51799 0.33301,0.53881 0.27265,0.69981 -0.83027,2.21468 -0.6757,0.92808 -0.68043,1.02236 -0.11118,2.21607 0.50288,1.05455 0.51726,1.27641 0.0933,1.4391 -0.27569,0.10579 -0.81492,0.0245 -1.1983,-0.18071 -0.57673,-0.30865 -0.79605,-0.22199 -1.27043,0.502 -0.60544,0.92402 -1.08174,1.1004 -1.43371,0.5309 z m 5.62308,-1.58008 c -1.27435,-1.27436 -1.15597,-2.79514 0.33354,-4.28465 1.42788,-1.42787 3.45488,-1.68478 4.07981,-0.51708 0.90705,1.69483 0.21051,4.30631 -1.36602,5.12157 -1.4505,0.75008 -2.03919,0.68829 -3.04733,-0.31984 z m 3.34972,-1.75859 c 0.56071,-0.67562 0.33701,-2.33019 -0.37531,-2.77593 -0.95494,-0.59755 -1.72365,-0.0348 -1.72365,1.26186 0,1.78411 1.17276,2.63007 2.09896,1.51407 z m -11.97523,-2.93175 c 8.5e-4,-0.33955 0.46978,-1.3232 1.0421,-2.1859 0.88429,-1.33294 1.00933,-1.79658 0.83248,-3.0868 -0.16931,-1.23528 -0.10441,-1.51827 0.3482,-1.51827 0.30596,0 0.65441,0.15875 0.77433,0.35277 0.34345,0.55572 1.22097,0.4148 2.19679,-0.35277 1.00595,-0.79129 2.21293,-0.9356 2.21292,-0.26459 -10e-6,0.24254 -0.55563,0.8843 -1.23473,1.42615 -1.20084,0.95816 -1.59711,2.1006 -0.88193,2.5426 0.19403,0.11992 0.35278,0.68989 0.35278,1.26662 0,1.24797 -0.94544,1.78778 -1.58921,0.90737 -0.59938,-0.8197 -0.95321,-0.74076 -2.11496,0.47185 -1.13616,1.1859 -1.94104,1.36897 -1.93877,0.44097 z m 7.3981,-2.40422 c -0.59157,-1.55593 -0.40407,-2.9477 0.52186,-3.87362 1.01454,-1.01455 2.33056,-1.12037 3.09103,-0.24855 1.69381,1.94183 1.57816,3.75564 -0.28921,4.53588 -1.84618,0.77138 -2.92413,0.6372 -3.32368,-0.41371 z m 2.85414,-0.87139 c 0.87978,-0.47084 0.95534,-2.62957 0.10349,-2.95646 -1.44994,-0.55639 -2.92528,1.79305 -1.82001,2.89832 0.51828,0.51828 0.83659,0.52907 1.71652,0.0581 z"
           id="path4509"
           inkscape:connector-curvature="0" />
        <path
           style="fill:#e511a9;stroke-width:0.35277778"
           d="m 109.67726,142.02976 c 0,-10.96257 0.0447,-15.44726 0.0994,-9.96597 0.0547,5.48128 0.0547,14.45066 0,19.93194 -0.0547,5.48129 -0.0994,0.9966 -0.0994,-9.96597 z m 49.74167,0 c 0,-10.96257 0.0447,-15.44726 0.0994,-9.96597 0.0547,5.48128 0.0547,14.45066 0,19.93194 -0.0547,5.48129 -0.0994,0.9966 -0.0994,-9.96597 z m -27.03884,16.23476 c -0.51959,-0.15683 -1.89708,-0.87298 -3.06109,-1.59144 -1.82898,-1.12892 -2.37136,-1.29571 -3.99417,-1.22826 -2.8397,0.11802 -3.01698,0.0666 -3.38242,-0.98174 -0.26475,-0.75944 -0.69654,-1.06787 -1.97294,-1.40926 -1.82463,-0.48801 -3.15053,-1.59241 -2.97929,-2.48158 0.0621,-0.32249 1.21075,-1.14617 2.55254,-1.83039 1.72937,-0.88186 2.77872,-1.70621 3.60438,-2.83154 1.51995,-2.07159 1.4967,-2.6812 -0.12813,-3.3601 -0.7205,-0.30105 -1.59363,-0.80403 -1.94028,-1.11775 -1.5943,-1.44282 0.0152,-3.5716 2.36678,-3.13043 l 1.23628,0.23192 v -3.0796 c 0,-3.65126 0.67479,-5.37727 2.8818,-7.37116 2.0795,-1.87871 3.55761,-2.40622 6.81959,-2.43376 2.41887,-0.0204 3.11555,0.12019 4.87458,0.98393 3.52719,1.73196 5.17959,4.76962 5.17959,9.52183 v 2.27965 l 1.3549,-0.18173 c 1.16189,-0.15584 1.4606,-0.0473 2.09696,0.76166 1.0314,1.3112 0.58583,2.28328 -1.54368,3.36777 -0.95249,0.48507 -1.69211,1.001 -1.6436,1.14653 0.0485,0.14552 0.0882,0.48553 0.0882,0.75559 0,1.0601 3.17741,4.04673 5.04292,4.74014 1.46903,0.54603 1.85778,0.85907 1.94393,1.56531 0.13786,1.13024 -1.20548,2.23101 -3.11668,2.5539 -0.7704,0.13016 -1.40072,0.43048 -1.40072,0.66739 0,1.24202 -0.9062,1.68769 -3.54646,1.74413 -2.30953,0.0494 -2.81908,0.18802 -4.21465,1.14675 -2.61568,1.79691 -4.77256,2.27027 -7.11833,1.56224 z m 6.43398,-2.85323 c 2.02226,-1.21207 2.58735,-1.38709 4.47867,-1.38709 2.00393,0 2.19852,-0.0708 2.62462,-0.95441 0.33766,-0.70024 0.87611,-1.05537 2.02185,-1.33349 1.78254,-0.4327 2.22122,-1.0551 0.96574,-1.3702 -1.23476,-0.30991 -4.3835,-3.26063 -5.21161,-4.88385 -1.05502,-2.06801 -0.79337,-3.13068 0.98076,-3.98327 1.76281,-0.84715 2.01904,-1.0753 1.73101,-1.54135 -0.14723,-0.23822 -0.55721,-0.23745 -1.24504,0.002 -0.70461,0.24563 -1.24434,0.2404 -1.72476,-0.0167 -0.6186,-0.33107 -0.71302,-0.81572 -0.81876,-4.20257 -0.1107,-3.5458 -0.19447,-3.93638 -1.13504,-5.29228 -2.97069,-4.28241 -10.27952,-4.53418 -13.63244,-0.4696 -1.38748,1.68198 -1.75184,3.09639 -1.75424,6.80974 -0.002,3.43982 -0.14927,3.63135 -2.49945,3.25554 -1.88859,-0.302 -1.79492,0.35937 0.17426,1.23043 2.1542,0.95291 2.53125,1.77258 1.68812,3.66986 -0.95588,2.15098 -2.37929,3.69149 -4.53506,4.90814 -1.03697,0.58522 -1.88539,1.12383 -1.88539,1.1969 0,0.0731 0.87291,0.38662 1.9398,0.69678 1.52791,0.44417 1.98548,0.7459 2.15491,1.42096 0.20041,0.79849 0.37309,0.85705 2.52723,0.85705 1.98923,0 2.5527,0.15438 4.0348,1.10544 3.79313,2.43405 5.44383,2.48502 9.12002,0.28165 z m -8.30616,-9.13958 c -0.11699,-0.18929 0.14743,-0.96991 0.5876,-1.73471 0.78559,-1.36499 0.78877,-1.41474 0.17297,-2.70609 -0.77024,-1.61521 -0.30372,-2.40705 0.81935,-1.39069 0.7047,0.63774 0.74264,0.62984 1.78892,-0.37256 0.87081,-0.83428 1.12693,-0.9303 1.38175,-0.51799 0.33301,0.53881 0.27265,0.69981 -0.83027,2.21468 -0.6757,0.92808 -0.68043,1.02236 -0.11118,2.21607 0.50288,1.05455 0.51726,1.27641 0.0933,1.4391 -0.27569,0.10579 -0.81492,0.0245 -1.1983,-0.18071 -0.57673,-0.30865 -0.79605,-0.22199 -1.27043,0.502 -0.60544,0.92402 -1.08174,1.1004 -1.43371,0.5309 z m 5.62308,-1.58008 c -1.27435,-1.27436 -1.15597,-2.79514 0.33354,-4.28465 1.42788,-1.42787 3.45488,-1.68478 4.07981,-0.51708 0.90705,1.69483 0.21051,4.30631 -1.36602,5.12157 -1.4505,0.75008 -2.03919,0.68829 -3.04733,-0.31984 z m 3.34972,-1.75859 c 0.56071,-0.67562 0.33701,-2.33019 -0.37531,-2.77593 -0.95494,-0.59755 -1.72365,-0.0348 -1.72365,1.26186 0,1.78411 1.17276,2.63007 2.09896,1.51407 z m -11.97523,-2.93175 c 8.5e-4,-0.33955 0.46978,-1.3232 1.0421,-2.1859 0.88429,-1.33294 1.00933,-1.79658 0.83248,-3.0868 -0.16931,-1.23528 -0.10441,-1.51827 0.3482,-1.51827 0.30596,0 0.65441,0.15875 0.77433,0.35277 0.34345,0.55572 1.22097,0.4148 2.19679,-0.35277 1.00595,-0.79129 2.21293,-0.9356 2.21292,-0.26459 -10e-6,0.24254 -0.55563,0.8843 -1.23473,1.42615 -1.20084,0.95816 -1.59711,2.1006 -0.88193,2.5426 0.19403,0.11992 0.35278,0.68989 0.35278,1.26662 0,1.24797 -0.94544,1.78778 -1.58921,0.90737 -0.59938,-0.8197 -0.95321,-0.74076 -2.11496,0.47185 -1.13616,1.1859 -1.94104,1.36897 -1.93877,0.44097 z m 7.3981,-2.40422 c -0.59157,-1.55593 -0.40407,-2.9477 0.52186,-3.87362 1.01454,-1.01455 2.33056,-1.12037 3.09103,-0.24855 1.69381,1.94183 1.57816,3.75564 -0.28921,4.53588 -1.84618,0.77138 -2.92413,0.6372 -3.32368,-0.41371 z m 2.85414,-0.87139 c 0.87978,-0.47084 0.95534,-2.62957 0.10349,-2.95646 -1.44994,-0.55639 -2.92528,1.79305 -1.82001,2.89832 0.51828,0.51828 0.83659,0.52907 1.71652,0.0581 z m -13.16416,-19.65472 c 5.48128,-0.0547 14.45066,-0.0547 19.93194,0 5.48129,0.0547 0.9966,0.0994 -9.96597,0.0994 -10.96257,0 -15.44726,-0.0447 -9.96597,-0.0994 z"
           id="path4511"
           inkscape:connector-curvature="0" />
        <path
           style="fill:#64315b;stroke-width:0.35277778"
           d="m 132.37076,157.77382 c -0.71875,-0.26422 -2.08202,-0.97786 -3.02949,-1.58585 -1.51311,-0.97096 -2.02485,-1.10543 -4.20663,-1.10543 -2.38861,0 -2.49968,-0.038 -2.89358,-0.98893 -0.31433,-0.75886 -0.79297,-1.09145 -2.05747,-1.42965 -1.95919,-0.524 -2.55739,-0.96153 -2.55739,-1.87049 0,-0.46971 0.50945,-0.89204 1.67569,-1.38913 1.82157,-0.77641 4.0858,-2.75782 4.87977,-4.27026 0.8701,-1.65745 0.64644,-2.20685 -1.24669,-3.06244 -2.09819,-0.94827 -2.60512,-1.98205 -1.4361,-2.92866 0.5945,-0.4814 1.12384,-0.58371 2.16149,-0.41778 l 1.37417,0.21974 0.008,-3.1319 c 0.009,-3.78389 0.60663,-5.32042 2.8791,-7.40675 1.93122,-1.77303 3.63305,-2.38262 6.63815,-2.37774 3.99359,0.006 7.291,2.03836 8.75071,5.39222 0.33618,0.77243 0.567,2.42128 0.59619,4.25899 l 0.0476,2.99861 1.33522,-0.0817 c 1.86183,-0.11397 2.74457,0.42905 2.60874,1.60476 -0.0848,0.73388 -0.50537,1.1497 -1.87287,1.85161 -0.96995,0.49786 -1.80772,1.13463 -1.86172,1.41504 -0.1472,0.76435 1.80018,3.63878 3.14718,4.64541 0.651,0.48649 1.79006,1.07891 2.53125,1.31648 0.74119,0.23757 1.43512,0.66001 1.54209,0.93875 0.30391,0.79198 -0.92886,1.87629 -2.61627,2.30118 -1.12558,0.28342 -1.67736,0.65823 -2.06087,1.39986 -0.49722,0.96151 -0.64281,1.01281 -2.87473,1.01281 -2.10766,0 -2.5905,0.14342 -4.66524,1.3857 -2.67419,1.60122 -4.8532,2.01982 -6.79609,1.30558 z m 6.44331,-2.36253 c 2.02226,-1.21207 2.58735,-1.38709 4.47867,-1.38709 2.00393,0 2.19852,-0.0708 2.62462,-0.95441 0.33766,-0.70024 0.87611,-1.05537 2.02185,-1.33349 1.78254,-0.4327 2.22122,-1.0551 0.96574,-1.3702 -1.23476,-0.30991 -4.3835,-3.26063 -5.21161,-4.88385 -1.05502,-2.06801 -0.79337,-3.13068 0.98076,-3.98327 1.76281,-0.84715 2.01904,-1.0753 1.73101,-1.54135 -0.14723,-0.23822 -0.55721,-0.23745 -1.24504,0.002 -0.70461,0.24563 -1.24434,0.2404 -1.72476,-0.0167 -0.6186,-0.33107 -0.71302,-0.81572 -0.81876,-4.20257 -0.1107,-3.5458 -0.19447,-3.93638 -1.13504,-5.29228 -2.97069,-4.28241 -10.27952,-4.53418 -13.63244,-0.4696 -1.38748,1.68198 -1.75184,3.09639 -1.75424,6.80974 -0.002,3.43982 -0.14927,3.63135 -2.49945,3.25554 -1.88859,-0.302 -1.79492,0.35937 0.17426,1.23043 2.1542,0.95291 2.53125,1.77258 1.68812,3.66986 -0.95588,2.15098 -2.37929,3.69149 -4.53506,4.90814 -1.03697,0.58522 -1.88539,1.12383 -1.88539,1.1969 0,0.0731 0.87291,0.38662 1.9398,0.69678 1.52791,0.44417 1.98548,0.7459 2.15491,1.42096 0.20041,0.79849 0.37309,0.85705 2.52723,0.85705 1.98923,0 2.5527,0.15438 4.0348,1.10544 3.79313,2.43405 5.44383,2.48502 9.12002,0.28165 z"
           id="path4513"
           inkscape:connector-curvature="0" />
      </g>
      <g
         id="g842"
         transform="matrix(1.4130752,0,0,1.4233365,54.836068,-101.32917)">
        <rect
           y="122.27254"
           x="114.45818"
           height="38.754082"
           width="39.889977"
           id="rect836"
           style="opacity:1;fill:#ffffff;fill-opacity:1;stroke-width:0.26458332" />
        <path
           inkscape:connector-curvature="0"
           id="path832"
           d="m 113.21647,166.31252 c -1.24185,-0.68685 -2.34325,-1.84536 -3.03294,-3.19023 -0.63624,-1.24065 -0.67122,-2.33995 -0.67122,-21.09253 0,-18.75258 0.035,-19.85188 0.67122,-21.09253 0.77787,-1.5168 1.8628,-2.57909 3.4564,-3.38426 0.99988,-0.50519 3.39206,-0.57043 20.91613,-0.57043 18.75599,0 19.85534,0.035 21.096,0.67122 1.5168,0.77787 2.57909,1.8628 3.38426,3.4564 0.5052,0.99989 0.57043,3.39233 0.57043,20.9196 0,21.40309 0.0554,20.73343 -1.89335,22.87588 -1.69549,1.864 -1.12212,1.81936 -23.22455,1.80784 -14.3479,-0.007 -20.78016,-0.12873 -21.27238,-0.40096 z m 25.5976,-10.90123 c 2.02226,-1.21207 2.58735,-1.38709 4.47867,-1.38709 2.00393,0 2.19852,-0.0708 2.62462,-0.95441 0.33766,-0.70024 0.87611,-1.05537 2.02185,-1.33349 1.78254,-0.4327 2.22122,-1.0551 0.96574,-1.3702 -1.23476,-0.30991 -4.3835,-3.26063 -5.21161,-4.88385 -1.05502,-2.06801 -0.79337,-3.13068 0.98076,-3.98327 1.76281,-0.84715 2.01904,-1.0753 1.73101,-1.54135 -0.14723,-0.23822 -0.55721,-0.23745 -1.24504,0.002 -0.70461,0.24563 -1.24434,0.2404 -1.72476,-0.0167 -0.6186,-0.33107 -0.71302,-0.81572 -0.81876,-4.20257 -0.1107,-3.5458 -0.19447,-3.93638 -1.13504,-5.29228 -2.97069,-4.28241 -10.27952,-4.53418 -13.63244,-0.4696 -1.38748,1.68198 -1.75184,3.09639 -1.75424,6.80974 -0.002,3.43982 -0.14927,3.63135 -2.49945,3.25554 -1.88859,-0.302 -1.79492,0.35937 0.17426,1.23043 2.1542,0.95291 2.53125,1.77258 1.68812,3.66986 -0.95588,2.15098 -2.37929,3.69149 -4.53506,4.90814 -1.03697,0.58522 -1.88539,1.12383 -1.88539,1.1969 0,0.0731 0.87291,0.38662 1.9398,0.69678 1.52791,0.44417 1.98548,0.7459 2.15491,1.42096 0.20041,0.79849 0.37309,0.85705 2.52723,0.85705 1.98923,0 2.5527,0.15438 4.0348,1.10544 3.79313,2.43405 5.44383,2.48502 9.12002,0.28165 z m -8.30616,-9.13958 c -0.11699,-0.18929 0.14743,-0.96991 0.5876,-1.73471 0.78559,-1.36499 0.78877,-1.41474 0.17297,-2.70609 -0.77024,-1.61521 -0.30372,-2.40705 0.81935,-1.39069 0.7047,0.63774 0.74264,0.62984 1.78892,-0.37256 0.87081,-0.83428 1.12693,-0.9303 1.38175,-0.51799 0.33301,0.53881 0.27265,0.69981 -0.83027,2.21468 -0.6757,0.92808 -0.68043,1.02236 -0.11118,2.21607 0.50288,1.05455 0.51726,1.27641 0.0933,1.4391 -0.27569,0.10579 -0.81492,0.0245 -1.1983,-0.18071 -0.57673,-0.30865 -0.79605,-0.22199 -1.27043,0.502 -0.60544,0.92402 -1.08174,1.1004 -1.43371,0.5309 z m 5.62308,-1.58008 c -1.27435,-1.27436 -1.15597,-2.79514 0.33354,-4.28465 1.42788,-1.42787 3.45488,-1.68478 4.07981,-0.51708 0.90705,1.69483 0.21051,4.30631 -1.36602,5.12157 -1.4505,0.75008 -2.03919,0.68829 -3.04733,-0.31984 z m 3.34972,-1.75859 c 0.56071,-0.67562 0.33701,-2.33019 -0.37531,-2.77593 -0.95494,-0.59755 -1.72365,-0.0348 -1.72365,1.26186 0,1.78411 1.17276,2.63007 2.09896,1.51407 z m -11.97523,-2.93175 c 8.5e-4,-0.33955 0.46978,-1.3232 1.0421,-2.1859 0.88429,-1.33294 1.00933,-1.79658 0.83248,-3.0868 -0.16931,-1.23528 -0.10441,-1.51827 0.3482,-1.51827 0.30596,0 0.65441,0.15875 0.77433,0.35277 0.34345,0.55572 1.22097,0.4148 2.19679,-0.35277 1.00595,-0.79129 2.21293,-0.9356 2.21292,-0.26459 -10e-6,0.24254 -0.55563,0.8843 -1.23473,1.42615 -1.20084,0.95816 -1.59711,2.1006 -0.88193,2.5426 0.19403,0.11992 0.35278,0.68989 0.35278,1.26662 0,1.24797 -0.94544,1.78778 -1.58921,0.90737 -0.59938,-0.8197 -0.95321,-0.74076 -2.11496,0.47185 -1.13616,1.1859 -1.94104,1.36897 -1.93877,0.44097 z m 7.3981,-2.40422 c -0.59157,-1.55593 -0.40407,-2.9477 0.52186,-3.87362 1.01454,-1.01455 2.33056,-1.12037 3.09103,-0.24855 1.69381,1.94183 1.57816,3.75564 -0.28921,4.53588 -1.84618,0.77138 -2.92413,0.6372 -3.32368,-0.41371 z m 2.85414,-0.87139 c 0.87978,-0.47084 0.95534,-2.62957 0.10349,-2.95646 -1.44994,-0.55639 -2.92528,1.79305 -1.82001,2.89832 0.51828,0.51828 0.83659,0.52907 1.71652,0.0581 z"
           style="fill:#f101cd;stroke-width:0.35277778" />
        <path
           inkscape:connector-curvature="0"
           id="path830"
           d="m 109.67726,142.02976 c 0,-10.96257 0.0447,-15.44726 0.0994,-9.96597 0.0547,5.48128 0.0547,14.45066 0,19.93194 -0.0547,5.48129 -0.0994,0.9966 -0.0994,-9.96597 z m 49.74167,0 c 0,-10.96257 0.0447,-15.44726 0.0994,-9.96597 0.0547,5.48128 0.0547,14.45066 0,19.93194 -0.0547,5.48129 -0.0994,0.9966 -0.0994,-9.96597 z m -27.03884,16.23476 c -0.51959,-0.15683 -1.89708,-0.87298 -3.06109,-1.59144 -1.82898,-1.12892 -2.37136,-1.29571 -3.99417,-1.22826 -2.8397,0.11802 -3.01698,0.0666 -3.38242,-0.98174 -0.26475,-0.75944 -0.69654,-1.06787 -1.97294,-1.40926 -1.82463,-0.48801 -3.15053,-1.59241 -2.97929,-2.48158 0.0621,-0.32249 1.21075,-1.14617 2.55254,-1.83039 1.72937,-0.88186 2.77872,-1.70621 3.60438,-2.83154 1.51995,-2.07159 1.4967,-2.6812 -0.12813,-3.3601 -0.7205,-0.30105 -1.59363,-0.80403 -1.94028,-1.11775 -1.5943,-1.44282 0.0152,-3.5716 2.36678,-3.13043 l 1.23628,0.23192 v -3.0796 c 0,-3.65126 0.67479,-5.37727 2.8818,-7.37116 2.0795,-1.87871 3.55761,-2.40622 6.81959,-2.43376 2.41887,-0.0204 3.11555,0.12019 4.87458,0.98393 3.52719,1.73196 5.17959,4.76962 5.17959,9.52183 v 2.27965 l 1.3549,-0.18173 c 1.16189,-0.15584 1.4606,-0.0473 2.09696,0.76166 1.0314,1.3112 0.58583,2.28328 -1.54368,3.36777 -0.95249,0.48507 -1.69211,1.001 -1.6436,1.14653 0.0485,0.14552 0.0882,0.48553 0.0882,0.75559 0,1.0601 3.17741,4.04673 5.04292,4.74014 1.46903,0.54603 1.85778,0.85907 1.94393,1.56531 0.13786,1.13024 -1.20548,2.23101 -3.11668,2.5539 -0.7704,0.13016 -1.40072,0.43048 -1.40072,0.66739 0,1.24202 -0.9062,1.68769 -3.54646,1.74413 -2.30953,0.0494 -2.81908,0.18802 -4.21465,1.14675 -2.61568,1.79691 -4.77256,2.27027 -7.11833,1.56224 z m 6.43398,-2.85323 c 2.02226,-1.21207 2.58735,-1.38709 4.47867,-1.38709 2.00393,0 2.19852,-0.0708 2.62462,-0.95441 0.33766,-0.70024 0.87611,-1.05537 2.02185,-1.33349 1.78254,-0.4327 2.22122,-1.0551 0.96574,-1.3702 -1.23476,-0.30991 -4.3835,-3.26063 -5.21161,-4.88385 -1.05502,-2.06801 -0.79337,-3.13068 0.98076,-3.98327 1.76281,-0.84715 2.01904,-1.0753 1.73101,-1.54135 -0.14723,-0.23822 -0.55721,-0.23745 -1.24504,0.002 -0.70461,0.24563 -1.24434,0.2404 -1.72476,-0.0167 -0.6186,-0.33107 -0.71302,-0.81572 -0.81876,-4.20257 -0.1107,-3.5458 -0.19447,-3.93638 -1.13504,-5.29228 -2.97069,-4.28241 -10.27952,-4.53418 -13.63244,-0.4696 -1.38748,1.68198 -1.75184,3.09639 -1.75424,6.80974 -0.002,3.43982 -0.14927,3.63135 -2.49945,3.25554 -1.88859,-0.302 -1.79492,0.35937 0.17426,1.23043 2.1542,0.95291 2.53125,1.77258 1.68812,3.66986 -0.95588,2.15098 -2.37929,3.69149 -4.53506,4.90814 -1.03697,0.58522 -1.88539,1.12383 -1.88539,1.1969 0,0.0731 0.87291,0.38662 1.9398,0.69678 1.52791,0.44417 1.98548,0.7459 2.15491,1.42096 0.20041,0.79849 0.37309,0.85705 2.52723,0.85705 1.98923,0 2.5527,0.15438 4.0348,1.10544 3.79313,2.43405 5.44383,2.48502 9.12002,0.28165 z m -8.30616,-9.13958 c -0.11699,-0.18929 0.14743,-0.96991 0.5876,-1.73471 0.78559,-1.36499 0.78877,-1.41474 0.17297,-2.70609 -0.77024,-1.61521 -0.30372,-2.40705 0.81935,-1.39069 0.7047,0.63774 0.74264,0.62984 1.78892,-0.37256 0.87081,-0.83428 1.12693,-0.9303 1.38175,-0.51799 0.33301,0.53881 0.27265,0.69981 -0.83027,2.21468 -0.6757,0.92808 -0.68043,1.02236 -0.11118,2.21607 0.50288,1.05455 0.51726,1.27641 0.0933,1.4391 -0.27569,0.10579 -0.81492,0.0245 -1.1983,-0.18071 -0.57673,-0.30865 -0.79605,-0.22199 -1.27043,0.502 -0.60544,0.92402 -1.08174,1.1004 -1.43371,0.5309 z m 5.62308,-1.58008 c -1.27435,-1.27436 -1.15597,-2.79514 0.33354,-4.28465 1.42788,-1.42787 3.45488,-1.68478 4.07981,-0.51708 0.90705,1.69483 0.21051,4.30631 -1.36602,5.12157 -1.4505,0.75008 -2.03919,0.68829 -3.04733,-0.31984 z m 3.34972,-1.75859 c 0.56071,-0.67562 0.33701,-2.33019 -0.37531,-2.77593 -0.95494,-0.59755 -1.72365,-0.0348 -1.72365,1.26186 0,1.78411 1.17276,2.63007 2.09896,1.51407 z m -11.97523,-2.93175 c 8.5e-4,-0.33955 0.46978,-1.3232 1.0421,-2.1859 0.88429,-1.33294 1.00933,-1.79658 0.83248,-3.0868 -0.16931,-1.23528 -0.10441,-1.51827 0.3482,-1.51827 0.30596,0 0.65441,0.15875 0.77433,0.35277 0.34345,0.55572 1.22097,0.4148 2.19679,-0.35277 1.00595,-0.79129 2.21293,-0.9356 2.21292,-0.26459 -10e-6,0.24254 -0.55563,0.8843 -1.23473,1.42615 -1.20084,0.95816 -1.59711,2.1006 -0.88193,2.5426 0.19403,0.11992 0.35278,0.68989 0.35278,1.26662 0,1.24797 -0.94544,1.78778 -1.58921,0.90737 -0.59938,-0.8197 -0.95321,-0.74076 -2.11496,0.47185 -1.13616,1.1859 -1.94104,1.36897 -1.93877,0.44097 z m 7.3981,-2.40422 c -0.59157,-1.55593 -0.40407,-2.9477 0.52186,-3.87362 1.01454,-1.01455 2.33056,-1.12037 3.09103,-0.24855 1.69381,1.94183 1.57816,3.75564 -0.28921,4.53588 -1.84618,0.77138 -2.92413,0.6372 -3.32368,-0.41371 z m 2.85414,-0.87139 c 0.87978,-0.47084 0.95534,-2.62957 0.10349,-2.95646 -1.44994,-0.55639 -2.92528,1.79305 -1.82001,2.89832 0.51828,0.51828 0.83659,0.52907 1.71652,0.0581 z m -13.16416,-19.65472 c 5.48128,-0.0547 14.45066,-0.0547 19.93194,0 5.48129,0.0547 0.9966,0.0994 -9.96597,0.0994 -10.96257,0 -15.44726,-0.0447 -9.96597,-0.0994 z"
           style="fill:#e511a9;stroke-width:0.35277778" />
        <path
           inkscape:connector-curvature="0"
           id="path828"
           d="m 132.37076,157.77382 c -0.71875,-0.26422 -2.08202,-0.97786 -3.02949,-1.58585 -1.51311,-0.97096 -2.02485,-1.10543 -4.20663,-1.10543 -2.38861,0 -2.49968,-0.038 -2.89358,-0.98893 -0.31433,-0.75886 -0.79297,-1.09145 -2.05747,-1.42965 -1.95919,-0.524 -2.55739,-0.96153 -2.55739,-1.87049 0,-0.46971 0.50945,-0.89204 1.67569,-1.38913 1.82157,-0.77641 4.0858,-2.75782 4.87977,-4.27026 0.8701,-1.65745 0.64644,-2.20685 -1.24669,-3.06244 -2.09819,-0.94827 -2.60512,-1.98205 -1.4361,-2.92866 0.5945,-0.4814 1.12384,-0.58371 2.16149,-0.41778 l 1.37417,0.21974 0.008,-3.1319 c 0.009,-3.78389 0.60663,-5.32042 2.8791,-7.40675 1.93122,-1.77303 3.63305,-2.38262 6.63815,-2.37774 3.99359,0.006 7.291,2.03836 8.75071,5.39222 0.33618,0.77243 0.567,2.42128 0.59619,4.25899 l 0.0476,2.99861 1.33522,-0.0817 c 1.86183,-0.11397 2.74457,0.42905 2.60874,1.60476 -0.0848,0.73388 -0.50537,1.1497 -1.87287,1.85161 -0.96995,0.49786 -1.80772,1.13463 -1.86172,1.41504 -0.1472,0.76435 1.80018,3.63878 3.14718,4.64541 0.651,0.48649 1.79006,1.07891 2.53125,1.31648 0.74119,0.23757 1.43512,0.66001 1.54209,0.93875 0.30391,0.79198 -0.92886,1.87629 -2.61627,2.30118 -1.12558,0.28342 -1.67736,0.65823 -2.06087,1.39986 -0.49722,0.96151 -0.64281,1.01281 -2.87473,1.01281 -2.10766,0 -2.5905,0.14342 -4.66524,1.3857 -2.67419,1.60122 -4.8532,2.01982 -6.79609,1.30558 z m 6.44331,-2.36253 c 2.02226,-1.21207 2.58735,-1.38709 4.47867,-1.38709 2.00393,0 2.19852,-0.0708 2.62462,-0.95441 0.33766,-0.70024 0.87611,-1.05537 2.02185,-1.33349 1.78254,-0.4327 2.22122,-1.0551 0.96574,-1.3702 -1.23476,-0.30991 -4.3835,-3.26063 -5.21161,-4.88385 -1.05502,-2.06801 -0.79337,-3.13068 0.98076,-3.98327 1.76281,-0.84715 2.01904,-1.0753 1.73101,-1.54135 -0.14723,-0.23822 -0.55721,-0.23745 -1.24504,0.002 -0.70461,0.24563 -1.24434,0.2404 -1.72476,-0.0167 -0.6186,-0.33107 -0.71302,-0.81572 -0.81876,-4.20257 -0.1107,-3.5458 -0.19447,-3.93638 -1.13504,-5.29228 -2.97069,-4.28241 -10.27952,-4.53418 -13.63244,-0.4696 -1.38748,1.68198 -1.75184,3.09639 -1.75424,6.80974 -0.002,3.43982 -0.14927,3.63135 -2.49945,3.25554 -1.88859,-0.302 -1.79492,0.35937 0.17426,1.23043 2.1542,0.95291 2.53125,1.77258 1.68812,3.66986 -0.95588,2.15098 -2.37929,3.69149 -4.53506,4.90814 -1.03697,0.58522 -1.88539,1.12383 -1.88539,1.1969 0,0.0731 0.87291,0.38662 1.9398,0.69678 1.52791,0.44417 1.98548,0.7459 2.15491,1.42096 0.20041,0.79849 0.37309,0.85705 2.52723,0.85705 1.98923,0 2.5527,0.15438 4.0348,1.10544 3.79313,2.43405 5.44383,2.48502 9.12002,0.28165 z"
           style="fill:#64315b;stroke-width:0.35277778" />
      </g>
    </g>
  </g>
</svg>
